
                        <svg fill="none" height="76" viewBox="0 0 84 76" width="84">
                            <clipPath id="a"><path d="m0 0h84v76h-84z"></path></clipPath>
                            <g clip-path="url(#a)">
                                <path
                                        d="m56.7775 43.6875c-.3211 0-.629-.1279-.856-.3555-.2271-.2276-.3546-.5362-.3546-.8581 0-3.6251-1.4366-7.1017-3.9938-9.6651-2.5571-2.5633-6.0253-4.0034-9.6417-4.0034-3.6163 0-7.0846 1.4401-9.6417 4.0034-2.5572 2.5634-3.9938 6.04-3.9938 9.6651 0 .3219-.1275.6305-.3545.8581-.2271.2276-.535.3555-.8561.3555-.321 0-.629-.1279-.856-.3555s-.3546-.5362-.3546-.8581c0-4.2688 1.6917-8.3628 4.7029-11.3813s7.0953-4.7143 11.3538-4.7143 8.3426 1.6958 11.3538 4.7143 4.7029 7.1125 4.7029 11.3813c0 .3219-.1276.6305-.3546.8581s-.5349.3555-.856.3555z"
                                        fill="#659cc0"
                                ></path>
                                <path
                                        d="m65.7763 43.6875c-.321 0-.629-.1279-.856-.3555s-.3546-.5362-.3546-.8581c-.1119-5.9444-2.5463-11.6074-6.7796-15.7716-4.2333-4.1643-9.9276-6.4971-15.8587-6.4971s-11.6254 2.3328-15.8588 6.4971c-4.2333 4.1642-6.6676 9.8272-6.7796 15.7716 0 .3219-.1275.6305-.3546.8581-.227.2276-.5349.3555-.856.3555s-.629-.1279-.856-.3555c-.2271-.2276-.3546-.5362-.3546-.8581.1179-6.5842 2.8099-12.8589 7.4966-17.4734 4.6868-4.6146 10.9936-7.2001 17.563-7.2001s12.8761 2.5855 17.5629 7.2001c4.6867 4.6145 7.3788 10.8892 7.4966 17.4734 0 .3219-.1275.6305-.3545.8581-.2271.2276-.535.3555-.8561.3555z"
                                        fill="#37ae40"
                                ></path>
                                <path
                                        d="m74.5129 43.6875c-.3211 0-.629-.1279-.8561-.3555-.227-.2276-.3545-.5362-.3545-.8581 0-8.3402-3.3052-16.3389-9.1884-22.2363-5.8831-5.8974-13.8624-9.2106-22.1825-9.2106s-16.2994 3.3132-22.1826 9.2106c-5.8831 5.8974-9.1883 13.8961-9.1883 22.2363 0 .3219-.1275.6305-.3546.8581-.22698.2276-.53491.3555-.85598.3555s-.629-.1279-.85603-.3555-.35458-.5362-.35458-.8581c0-8.9839 3.56019-17.5999 9.89749-23.9525 6.3372-6.3526 14.9324-9.92145 23.8946-9.92145s17.5574 3.56885 23.8946 9.92145c6.3373 6.3526 9.8975 14.9686 9.8975 23.9525 0 .3219-.1276.6305-.3546.8581s-.535.3555-.856.3555z"
                                        fill="#f3ba0f"
                                ></path>
                                <path
                                        d="m82.6482 43.6874c-.3211 0-.629-.1278-.8561-.3554-.227-.2276-.3546-.5362-.3546-.8581.0528-5.2345-.9301-10.4276-2.8919-15.279s-4.8636-9.2648-8.5375-12.985-8.0471-6.67346-12.8666-8.68894c-4.8196-2.01549-9.99-3.05323-15.2121-3.05323-5.2222 0-10.3925 1.03774-15.2121 3.05323-4.8196 2.01548-9.1927 4.96874-12.8667 8.68894-3.6739 3.7202-6.57562 8.1336-8.53742 12.985s-2.94474 10.0445-2.89196 15.279c0 .3219-.12755.6305-.35458.8581s-.53496.3554-.85603.3554c-.321072 0-.628995-.1278-.856028-.3554s-.35457832-.5362-.35457832-.8581c-.05435808-5.5543.99003332-11.0643 3.07280632-16.2115 2.08277-5.1472 5.16262-9.8296 9.06149-13.7765 3.8989-3.94689 8.5396-7.07998 13.6537-9.2182 5.1141-2.13821 10.6003-3.2391355 16.1414-3.2391355s11.0273 1.1009255 16.1414 3.2391355c5.1141 2.13822 9.7547 5.27131 13.6536 9.2182 3.8989 3.9469 6.9788 8.6293 9.0616 13.7765 2.0827 5.1472 3.1271 10.6572 3.0728 16.2115 0 .3219-.1276.6305-.3546.8581s-.535.3554-.856.3554z"
                                        fill="#d81f23"
                                ></path>
                                <g fill="#000">
                                    <path
                                            d="m5.42353 62.2101v3.6932h-1.15815v-8.3046h2.65527c.74915-.0346 1.49142.157 2.13067.5501.27333.1969.49127.4612.63267.7674.14141.3062.20148.6438.1744.9801.01063.2691-.03243.5375-.12667.7897-.09425.2521-.23776.4829-.42214.6787-.39673.3953-.91078.6508-1.46484.7281l2.32036 3.8105h-1.39222l-2.10646-3.6932zm0-3.6406v2.6536h1.3357c1.2967 0 1.9437-.4463 1.94101-1.3389 0-.8738-.61741-1.3147-1.8603-1.3147z"
                                    ></path>
                                    <path d="m15.9114 63.8606-.8313 2.0225h-1.2873l3.5915-8.3046h1.0532l3.5592 8.3046h-1.3115l-.8434-2.0225zm1.9652-4.9149-1.5576 3.8955h3.1032z"></path>
                                    <path d="m27.509 57.5987v8.3047h-1.1622v-8.3047z"></path>
                                    <path d="m34.3005 57.5987 4.3461 6.6381h.0242v-6.6381h1.1582v8.3047h-1.4608l-4.3784-6.7797h-.0242v6.7797h-1.1581v-8.3047z"></path>
                                    <path
                                            d="m45.1314 65.9034v-8.3047h2.853c.6495-.0199 1.2902.1548 1.8402.5016.257.1792.4624.4231.5955.7071.1332.2841.1894.5982.1631.9109.0069.419-.1362.8266-.4035 1.1489-.273.3267-.6437.5564-1.0573.6553v.0242c.5045.0442.9761.2698 1.3276.6351.3452.3758.5279.8731.5085 1.3835.0152.3427-.0569.6836-.2094.9907-.1524.3072-.3803.5703-.6622.7649-.6676.4256-1.4492.636-2.2397.6027zm1.1582-7.3339v2.5363h1.5092c.4142.0173.8235-.0959 1.1703-.3236.1512-.1095.2723-.2556.352-.4246s.1155-.3556.104-.5422c0-.8306-.604-1.2459-1.8119-1.2459zm0 3.5233v2.8316h1.4527c.3307.0059.6606-.0336.9806-.1173.2881-.0769.5493-.2323.7546-.449.2163-.2335.3323-.543.3229-.8616 0-.9304-.6511-1.3956-1.9532-1.3956z"
                                    ></path>
                                    <path
                                            d="m64.2873 61.7409c.0194.5818-.0813 1.1613-.2959 1.7021-.2146.5409-.5384 1.0315-.9511 1.441-.8567.7908-1.9788 1.2298-3.1435 1.2298s-2.2868-.439-3.1435-1.2298c-.7955-.8515-1.2382-1.9745-1.2382-3.1411s.4427-2.2895 1.2382-3.141c.8631-.7812 1.9847-1.2136 3.1475-1.2136 1.1629 0 2.2844.4324 3.1476 1.2136.413.4081.7364.898.9497 1.4385s.3118 1.1197.2892 1.7005zm-1.251 0c.0249-.8725-.2858-1.7211-.8676-2.3704-.2949-.3045-.6477-.5466-1.0376-.7118-.3899-.1653-.809-.2505-1.2323-.2505s-.8423.0852-1.2322.2505c-.3899.1652-.7428.4073-1.0377.7118-.5605.6628-.8682 1.5035-.8682 2.3724 0 .869.3077 1.7097.8682 2.3725.2961.3025.6493.5427 1.039.7068.3898.164.8082.2485 1.2309.2485s.8412-.0845 1.2309-.2485c.3898-.1641.743-.4043 1.039-.7068.5821-.6508.8927-1.5008.8676-2.3745z"
                                    ></path>
                                    <path d="m69.5171 57.5987 1.828 6.6138h.0243l1.941-6.6138h1.2751l1.933 6.6138 1.828-6.6138h1.2106l-2.4212 8.3047h-1.2106l-2.0177-6.6745h-.0242l-2.0177 6.6745h-1.2106l-2.4212-8.3047z"></path>
                                    <path d="m20.8184 75.9191 1.3761-3.1512h.4035l1.3519 3.1512h-.5206l-.3188-.7767h-1.489l-.3148.7767zm.9725-1.1609h1.1784l-.5892-1.4765z"></path>
                                    <path d="m26.3912 75.9191v-3.1512h1.8321v.4046h-1.3922v2.7628z"></path>
                                    <path d="m30.701 75.9191v-3.1512h2.0177v.4046h-1.5779v.9425h1.4851v.3762h-1.4851v1.0517h1.6424v.4045z"></path>
                                    <path d="m35.4305 75.9191v-3.1512h.4398v1.3188h1.6141v-1.3188h.4359v3.1512h-.456v-1.4441h-1.6142v1.4441z"></path>
                                    <path d="m41.3866 75.9191v-2.7628h-1.0088v-.4045h2.4575v.4045h-1.0088v2.7628z"></path>
                                    <path
                                            d="m46.6729 76c-.2191.0056-.4371-.0336-.6406-.1153-.2035-.0816-.3883-.2039-.5431-.3595-.1548-.1555-.2764-.3411-.3573-.5453-.081-.2042-.1196-.4228-.1135-.6424-.008-.2203.0298-.4398.1111-.6445.0813-.2048.2042-.3903.3611-.5448.1606-.1543.3505-.2747.5585-.3539s.4297-.1157.6521-.1073c.2229-.0001.4437.0439.6497.1295.1902.0732.3564.1978.4802.36l-.3471.267c-.0844-.1156-.1969-.2075-.3268-.267-.1425-.0677-.2984-.1023-.456-.1011-.1617-.0059-.3227.0237-.4719.0866-.1491.0628-.2828.1575-.3917.2774-.21.2535-.325.5726-.325.9021s.115.6486.325.9021c.1068.1204.239.2155.3869.2784.148.063.308.0922.4686.0856.1632.0094.3261-.0227.4736-.0934.1475-.0708.2747-.1778.3698-.3111l.3511.2387c-.1398.1874-.3242.3367-.5364.4342s-.4454.1402-.6783.124z"
                                    ></path>
                                    <path d="m51.0392 75.9191v-2.7628h-1.0008v-.4045h2.4535v.4045h-1.0088v2.7628z"></path>
                                    <path
                                            d="m54.9656 75.9191v-3.1512h1.0815c.2463-.0067.4891.0595.6981.1901.1534.1221.2537.2989.28.4934s-.0234.3917-.1388.5503c-.1046.1234-.2461.2099-.4035.2467.1919.0141.3717.0991.5044.2387.1312.1428.2009.3318.1937.5259.0059.1297-.0214.2587-.0793.3748-.0579.1162-.1445.2155-.2516.2886-.2533.1629-.5507.2435-.8514.2305zm.4399-1.8203h.573c.1568.006.3118-.0363.4439-.1214.0571-.0421.1028-.0978.1331-.1621.0303-.0642.0442-.135.0404-.206 0-.3155-.23-.4733-.6901-.4733h-.5003zm0 1.4441h.5488c.1265.0029.2529-.0121.3753-.0445.1084-.0284.2064-.0873.2824-.1699.0421-.0431.075-.0945.0965-.1508.0215-.0564.0313-.1166.0286-.1769 0-.3519-.2502-.5299-.7425-.5299h-.5891z"
                                    ></path>
                                    <path
                                            d="m61.3737 76c-.2194.0061-.4378-.0327-.6418-.1141-.204-.0813-.3893-.2036-.5446-.3592-.1552-.1556-.2771-.3414-.3583-.5458-.0812-.2045-.1199-.4235-.1138-.6435-.0086-.2199.0286-.4392.1092-.644.0806-.2047.2028-.3904.3589-.5452.1591-.1565.3488-.2783.5571-.3576.2084-.0794.4309-.1147.6535-.1036.2224-.0091.4444.027.6524.1063.2081.0792.398.2.5582.3549.3034.3221.4724.7483.4724 1.1913 0 .4429-.169.8691-.4724 1.1912-.1616.1593-.3544.2833-.5663.3641-.2118.0807-.4381.1166-.6645.1052zm0-.4045c.1623.0061.3241-.0233.4739-.0861.1498-.0629.2842-.1578.3937-.278.2112-.2521.327-.5708.327-.9 0-.3293-.1158-.648-.327-.9001-.1095-.1202-.2439-.2151-.3937-.2779-.1498-.0629-.3116-.0923-.4739-.0861-.1605-.0058-.3202.0238-.4681.0867-.1478.063-.28.1576-.3874.2773-.2112.2521-.3269.5708-.3269.9001 0 .3292.1157.6479.3269.9.1066.1212.2385.2174.3864.2817.1478.0643.308.0952.4691.0905z"
                                    ></path>
                                </g>
                            </g>
                        </svg>